<!--<svg xmlns="http://www.w3.org/2000/svg" width="103" height="103" viewBox="0 0 103 103">-->
<!--    <path d="M0 0.5V24.9c0 8.2 0.3 16.4 8.7 20.6 3.7 1.9 7.9 1.6 11.9 1.6h18v9.3H20.6c-3.9 0-8.1-0.2-11.6 1.6C0 62.4 0 70.9 0 79.6v23.3h24.3c8.7 0 17.3-0.1 21.3-9.5 2.1-5 1.2-11.1 1.2-16.4 0-3.8 0.8-8.8-0.3-12.4 7.3 0 14.9-1.2 17.1-9.5 0.6-2.5 0.4-5.1 0.4-7.7h-7.9c0 1.8 0.3 4.1-0.3 5.8-1.7 4.5-8.3 3.4-12.1 3.4v-0.3l2.8-0.3 0.3-2.4 0.1-6.6h34.4c7.2 0 14.1-0.1 18.6-6.6 3.2-4.6 2.8-9.8 2.8-15.1V0.5H77.5c-7.5 0-14.8 0.1-19.2 7.4-2.5 4.2-2.2 8.5-2.2 13.2v17.7h7.9v-18.8c0-3.4-0.3-6.9 2.4-9.5 2.5-2.5 6-2.1 9.2-2.1H94.7V26.7c0 3.2 0.4 6.6-1.6 9.3-3.1 4.1-8.5 3.2-13 3.2H46.8v7.7h-0.3l0.3-7.7c0-6-0.3-12-0.3-18 0-4.7 0.4-9.1-2.1-13.2C39.9 0.5 32.6 0.5 24.9 0.5ZM29.7 8.4c2.5 0 4.8 0.2 6.7 2.2 2.6 2.6 2.1 5.9 2.1 9.2v19.3H19.3c-3.1 0-6.5 0.2-9-2.1-2.6-2.5-2.4-6.2-2.4-9.5V8.5H27.3c0.8 0 1.7 0 2.5 0zM16.9 64.5c0.8 0 1.6 0 2.4 0h19.3v19.8c0 3.8 0.1 7.2-3.4 9.5-2.5 1.6-5.9 1.3-8.7 1.3-6 0-12.7-1.1-18.5 0v-19.3c0-3.3-0.1-6.9 2.4-9.4 1.8-1.8 4.2-2 6.6-2zM151.9 102.7c0 0.1 0.1 0.1 0.1 0.2h0.3c-0.1-0.1-0.2-0.1-0.3-0.2 0 0-0.1 0-0.1 0z"/>-->
<!--</svg>-->

<!--<svg-->
<!--        viewBox="0 0 68 67.999998"-->
<!--        version="1.1"-->
<!--        id="svg3065"-->
<!--        xmlns="http://www.w3.org/2000/svg">-->
<!--    <defs-->
<!--            id="defs3062"/>-->
<!--    <g-->
<!--            id="layer1">-->
<!--        <g id="g14799">-->
<!--            <path-->
<!--                    id="rect3148"-->
<!--                    style="fill:none;stroke-width:4;stroke-miterlimit:4;stroke-dasharray:none;stroke-opacity:1"-->
<!--                    d="m 12.219263,2.2 h 8.577589 c 5.716871,0 10.319264,4.4101378 10.319264,9.888201 v 9.4191 c 0,2.739031 0.01015,9.897928 0.01015,9.897928 0,0 -7.470975,-0.0097 -10.329413,-0.0097 h -8.57759 C 6.5023914,31.395529 1.9,26.985391 1.9,21.507327 v -9.419108 c 0,-2.7390313 0.094193,-9.797943 0.094193,-9.797943 0,0 7.3666337,-0.090258 10.22507,-0.090258 z"-->
<!--            />-->
<!--            <path-->
<!--                    id="rect3148-8"-->
<!--                    style="fill:none;stroke-width:4;stroke-miterlimit:4;stroke-dasharray:none;stroke-opacity:1"-->
<!--                    d="m 55.928037,2.2000008 h -8.577589 c -5.716872,0 -10.319264,4.4101378 -10.319264,9.8882012 v 9.419099 c 0,2.739031 -0.01015,9.897928 -0.01015,9.897928 0,0 7.470976,-0.0097 10.329413,-0.0097 h 8.577589 c 5.716871,0 10.319264,-4.410138 10.319264,-9.888202 V 12.08822 c 0,-2.7390323 -0.09419,-9.7979432 -0.09419,-9.7979432 0,0 -7.366633,-0.090258 -10.22507,-0.090258 z"-->
<!--            />-->
<!--            <path-->
<!--                    id="rect3148-7"-->
<!--                    style="fill:none;stroke-width:4;stroke-miterlimit:4;stroke-dasharray:none;stroke-opacity:1"-->
<!--                    d="m 12.227552,66.037781 h 8.577589 c 5.716872,0 10.319264,-4.410139 10.319264,-9.8882 v -9.4191 c 0,-2.739031 0.01015,-9.897928 0.01015,-9.897928 0,0 -7.470977,0.0097 -10.329414,0.0097 h -8.577589 c -5.7168723,0 -10.3192637,4.410138 -10.3192637,9.888203 v 9.419108 c 0,2.739031 0.094193,9.797942 0.094193,9.797942 0,0 7.3666344,0.09026 10.2250707,0.09026 z"-->
<!--            />-->
<!--            <path-->
<!--                    id="path13020"-->
<!--                    style="fill:none;fill-opacity:1;stroke-width:4;stroke-linejoin:round;stroke-miterlimit:4;stroke-dasharray:none;stroke-opacity:1"-->
<!--                    d="m 31.1597,31.380155 v 5.538198 a 5.1365406,5.1845813 0 0 0 0.845335,0.07319 5.1365406,5.1845813 0 0 0 5.136483,-5.184568 5.1365406,5.1845813 0 0 0 -0.01759,-0.426818 z"/>-->
<!--        </g>-->
<!--    </g>-->
<!--</svg>-->


<svg xmlns="http://www.w3.org/2000/svg" width="71" height="71" viewBox="0 0 71 71">
    <style>.a{fill:none;stroke-width:3;}</style>
    <path d="m12.2 1.7h8.6c5.7 0 10.3 4.4 10.3 9.9v9.4c0 2.7 0 9.9 0 9.9 0 0-7.5 0-10.3 0h-8.6C6.1 30.7 1.5 26.3 1.5 20.8v-9.4c0-2.7 0.1-9.8 0.1-9.8 0 0 7.4-0.1 10.2-0.1z" class="a"/>
    <path d="m59.5 1.7h-8.6c-5.7 0-10.3 4.4-10.3 9.9v9.4c0 2.7 0 9.9 0 9.9 0 0 7.5 0 10.3 0H59.1c5.7 0 10.3-4.4 10.3-9.9v-9.4c0-2.7-0.1-9.8-0.1-9.8 0 0-7.4-0.1-10.2-0.1z" class="a"/>
    <path d="m12.2 69.6h8.6c5.7 0 10.3-4.4 10.3-9.9v-9.4c0-2.7 0-9.9 0-9.9 0 0-7.5 0-10.3 0h-8.6c-5.7 0-10.3 4.4-10.3 9.9v9.4c0 2.7 0.1 9.8 0.1 9.8 0 0 7.4 0.1 10.2 0.1z" class="a"/>
    <path d="m31.2 30.9v9.4a8.2 8.2 0 0 0 1.2 0.1 8.2 8.2 0 0 0 8.2-8.2 8.2 8.2 0 0 0-0.1-1.3z"
          style="fill:none;stroke-linejoin:round;stroke-width:3"/>
</svg>
